<svg width="80" height="80" viewBox="0 0 80 80" fill="none" xmlns="http://www.w3.org/2000/svg">
<rect width="80" height="80" rx="10" fill="#0084FF" fill-opacity="0.06"/>
<path fill-rule="evenodd" clip-rule="evenodd" d="M23.3481 47.2451C23.3481 46.3577 24.0683 45.6376 24.9557 45.6376C25.843 45.6376 26.5632 46.3577 26.5632 47.2451C26.5632 48.1731 26.9318 49.0648 27.5898 49.7228C28.2457 50.3786 29.1373 50.7473 30.0675 50.7473C30.9549 50.7473 31.6751 51.4675 31.6751 52.3548V55.3126L36.1075 51.6175C36.7826 51.0559 37.6314 50.7473 38.5102 50.7473H53.0657C53.9959 50.7473 54.8875 50.3786 55.5434 49.7228C56.2014 49.0648 56.57 48.1731 56.57 47.2451C56.57 47.1551 56.5765 47.0672 56.5915 46.9793C56.5915 46.9793 59.7829 27.9571 59.7829 27.9485C59.7508 27.0676 59.3864 26.2274 58.7584 25.6015C58.1025 24.9435 57.2109 24.5749 56.2807 24.5749H43.1741C42.2868 24.5749 41.5666 23.8547 41.5666 22.9674C41.5666 22.08 42.2868 21.3599 43.1741 21.3599H56.2807C58.0639 21.3599 59.7722 22.0672 61.0325 23.3275C62.2928 24.5877 63.0001 26.296 63.0001 28.0771C63.0001 28.1671 62.9936 28.2572 62.9786 28.345C62.9786 28.345 59.7829 47.3887 59.7829 47.3758C59.7508 49.1098 59.0456 50.7666 57.8175 51.9947C56.5572 53.255 54.8489 53.9623 53.0657 53.9623H38.5102C38.3837 53.9623 38.2616 54.0073 38.1672 54.0866L31.0963 59.9787C30.6162 60.3795 29.9497 60.4652 29.3838 60.1995C28.8201 59.9358 28.46 59.3678 28.46 58.7441V53.7673C27.279 53.4779 26.1902 52.8692 25.3157 51.9947C24.0554 50.7344 23.3481 49.0262 23.3481 47.2451Z" fill="#0084FF"/>
<path fill-rule="evenodd" clip-rule="evenodd" d="M32.4578 31.7466C33.3451 31.7466 34.0653 32.4667 34.0653 33.3541C34.0653 34.2414 33.3451 34.9616 32.4578 34.9616H23.8844C22.997 34.9616 22.2769 34.2414 22.2769 33.3541C22.2769 32.4667 22.997 31.7466 23.8844 31.7466H32.4578Z" fill="#0084FF"/>
<path fill-rule="evenodd" clip-rule="evenodd" d="M31.3861 40.3198C32.2735 40.3198 32.9937 41.04 32.9937 41.9273C32.9937 42.8147 32.2735 43.5348 31.3861 43.5348H18.6075C17.7223 43.5348 17 42.8147 17 41.9273C17 41.04 17.7223 40.3198 18.6075 40.3198H31.3861Z" fill="#0084FF"/>
<path fill-rule="evenodd" clip-rule="evenodd" d="M35.6728 23.1731C36.5601 23.1731 37.2803 23.8933 37.2803 24.7806C37.2803 25.668 36.5601 26.3881 35.6728 26.3881H22.8941C22.0089 26.3881 21.2866 25.668 21.2866 24.7806C21.2866 23.8933 22.0089 23.1731 22.8941 23.1731H35.6728Z" fill="#0084FF"/>
</svg>
